<svg xmlns="http://www.w3.org/2000/svg" viewBox="0 0 800 400" width="800" height="400">
  <rect width="800" height="400" fill="#1a0a00"/>
  <!-- Table -->
  <rect x="50" y="180" width="700" height="180" fill="#5c2d0e" rx="5"/>
  <rect x="50" y="180" width="700" height="8" fill="#78350f"/>
  <!-- Tablecloth pattern -->
  <rect x="60" y="188" width="680" height="165" fill="#7c2d12" opacity="0.3"/>
  <!-- Pizza boxes -->
  <rect x="100" y="140" width="150" height="100" fill="#d4a574" rx="3"/>
  <rect x="100" y="140" width="150" height="10" fill="#c4956a"/>
  <rect x="300" y="150" width="150" height="100" fill="#d4a574" rx="3"/>
  <rect x="300" y="150" width="150" height="10" fill="#c4956a"/>
  <rect x="500" y="135" width="150" height="100" fill="#d4a574" rx="3"/>
  <rect x="500" y="135" width="150" height="10" fill="#c4956a"/>
  <!-- Drinks -->
  <rect x="680" y="160" width="30" height="60" fill="#dc2626" rx="2"/>
  <rect x="690" y="155" width="10" height="10" fill="#991b1b" rx="5"/>
  <rect x="650" y="170" width="25" height="50" fill="#1d4ed8" rx="2"/>
  <!-- Label -->
  <text x="400" y="380" text-anchor="middle" font-family="Georgia, serif" font-size="18" fill="#d4a574">Catering for Every Occasion</text>
</svg>